# xmcd
#
# Track frame offsets:
#  150
#  17040
#  30880
#  50210
#  72025
#  86267
#  101185
#  114680
#  132395
#  147790
#  161500
#  175732
#
# Disc length: 2534 seconds
#
# Revision: 0
# Processed by: cddbd v1.5.1PL2 Copyright (c) Steve Scherf et al.
# Submitted via: Collectorz.com_Music_Collector 6.11
#
DISCID=9b09e40c
DTITLE=Lloyd Spiegel - Timber and Steel
DYEAR=2006
DGENRE=Blues
TTITLE0=If I Killed You When I Met You
TTITLE1=Goin' Home
TTITLE2=I Just Wanna Make Love To You
TTITLE3=Sweet Little Angel
TTITLE4=Statesboro Blues
TTITLE5=Long Way From Heaven
TTITLE6=King With No Crown
TTITLE7=You Don't Love Me
TTITLE8=Killing Floor
TTITLE9=Walk On
TTITLE10=Love And Money
TTITLE11=Bad Girl
EXTD=
EXTT0=
EXTT1=
EXTT2=
EXTT3=
EXTT4=
EXTT5=
EXTT6=
EXTT7=
EXTT8=
EXTT9=
EXTT10=
EXTT11=
PLAYORDER=
